<svg data-v-423bf9ae="" xmlns="http://www.w3.org/2000/svg" viewBox="0 0 453.05172754411336 60" class="font"><!----><!----><!----><g data-v-423bf9ae="" id="e4b98ba9-ca8e-4c41-a490-5c1fd6cfa7e9" fill="black" transform="matrix(5.172414048248195,0,0,5.172414048248195,-6.000003943403698,-4.137931955909629)"><path d="M6.15 7.10L7.74 10.50L6.23 10.50L4.79 7.73L4.79 7.73Q4.79 7.73 4.71 7.59L4.71 7.59L4.71 7.59Q4.63 7.45 4.49 7.28L4.49 7.28L4.49 7.28Q4.35 7.11 4.14 6.96L4.14 6.96L4.14 6.96Q3.93 6.82 3.68 6.82L3.68 6.82L2.56 6.82L2.56 10.50L1.16 10.50L1.16 1.36L3.33 1.36L3.33 1.36Q3.92 1.36 4.56 1.40L4.56 1.40L4.56 1.40Q5.21 1.44 5.75 1.70L5.75 1.70L5.75 1.70Q6.29 1.96 6.64 2.52L6.64 2.52L6.64 2.52Q7 3.08 7 4.10L7 4.10L7 4.10Q7 4.82 6.68 5.24L6.68 5.24L6.68 5.24Q6.36 5.66 5.98 5.88L5.98 5.88L5.98 5.88Q5.52 6.13 4.96 6.24L4.96 6.24L4.96 6.24Q5.28 6.31 5.60 6.47L5.60 6.47L5.60 6.47Q5.92 6.64 6.15 7.10L6.15 7.10ZM2.56 5.57L3.42 5.57L3.42 5.57Q3.81 5.57 4.18 5.55L4.18 5.55L4.18 5.55Q4.55 5.53 4.84 5.39L4.84 5.39L4.84 5.39Q5.12 5.25 5.30 4.95L5.30 4.95L5.30 4.95Q5.47 4.65 5.47 4.10L5.47 4.10L5.47 4.10Q5.47 3.54 5.30 3.23L5.30 3.23L5.30 3.23Q5.12 2.93 4.82 2.79L4.82 2.79L4.82 2.79Q4.52 2.65 4.12 2.63L4.12 2.63L4.12 2.63Q3.71 2.60 3.26 2.60L3.26 2.60L2.56 2.60L2.56 5.57ZM12.66 10.67L12.66 10.67L12.66 10.67Q11.45 10.67 10.70 10.31L10.70 10.31L10.70 10.31Q9.95 9.95 9.53 9.39L9.53 9.39L9.53 9.39Q9.11 8.83 8.96 8.14L8.96 8.14L8.96 8.14Q8.81 7.45 8.81 6.78L8.81 6.78L8.81 6.78Q8.81 6.10 9.02 5.46L9.02 5.46L9.02 5.46Q9.24 4.82 9.65 4.31L9.65 4.31L9.65 4.31Q10.07 3.81 10.67 3.50L10.67 3.50L10.67 3.50Q11.27 3.19 12.05 3.19L12.05 3.19L12.05 3.19Q12.99 3.19 13.62 3.52L13.62 3.52L13.62 3.52Q14.25 3.85 14.63 4.38L14.63 4.38L14.63 4.38Q15.01 4.90 15.16 5.54L15.16 5.54L15.16 5.54Q15.32 6.17 15.32 6.78L15.32 6.78L15.32 7.22L10.21 7.22L10.21 7.22Q10.26 7.90 10.51 8.41L10.51 8.41L10.51 8.41Q10.63 8.64 10.79 8.86L10.79 8.86L10.79 8.86Q10.96 9.07 11.21 9.24L11.21 9.24L11.21 9.24Q11.45 9.41 11.77 9.51L11.77 9.51L11.77 9.51Q12.10 9.60 12.52 9.60L12.52 9.60L12.52 9.60Q12.96 9.60 13.36 9.50L13.36 9.50L13.36 9.50Q13.76 9.39 14.07 9.27L14.07 9.27L14.07 9.27Q14.43 9.11 14.74 8.92L14.74 8.92L14.76 10.12L14.76 10.12Q14.76 10.12 14.60 10.21L14.60 10.21L14.60 10.21Q14.43 10.30 14.15 10.40L14.15 10.40L14.15 10.40Q13.87 10.50 13.49 10.58L13.49 10.58L13.49 10.58Q13.10 10.67 12.66 10.67ZM10.21 6.24L13.92 6.24L13.92 6.24Q13.92 5.89 13.81 5.54L13.81 5.54L13.81 5.54Q13.71 5.18 13.48 4.89L13.48 4.89L13.48 4.89Q13.26 4.61 12.91 4.43L12.91 4.43L12.91 4.43Q12.56 4.26 12.05 4.26L12.05 4.26L12.05 4.26Q11.62 4.26 11.28 4.43L11.28 4.43L11.28 4.43Q10.93 4.61 10.70 4.89L10.70 4.89L10.70 4.89Q10.46 5.18 10.33 5.54L10.33 5.54L10.33 5.54Q10.21 5.89 10.21 6.24L10.21 6.24ZM20.94 5.12L19.05 5.12L19.05 8.46L19.05 8.46Q19.05 9.59 20.02 9.59L20.02 9.59L20.02 9.59Q20.43 9.59 20.85 9.38L20.85 9.38L20.85 10.40L20.85 10.40Q20.27 10.67 19.63 10.67L19.63 10.67L19.63 10.67Q18.70 10.67 18.19 10.14L18.19 10.14L18.19 10.14Q17.68 9.62 17.68 8.60L17.68 8.60L17.68 5.12L16.41 5.12L16.41 4.05L17.68 4.05L17.68 1.95L19.05 1.62L19.05 4.05L20.94 4.05L20.94 5.12ZM26.60 3.30L26.60 4.47L26.60 4.47Q26.50 4.44 26.39 4.41L26.39 4.41L26.39 4.41Q26.29 4.38 26.17 4.36L26.17 4.36L26.17 4.36Q26.05 4.34 25.94 4.34L25.94 4.34L25.94 4.34Q25.34 4.34 24.95 4.61L24.95 4.61L24.95 4.61Q24.56 4.89 24.33 5.31L24.33 5.31L24.33 5.31Q24.11 5.73 24.02 6.24L24.02 6.24L24.02 6.24Q23.93 6.76 23.93 7.25L23.93 7.25L23.93 10.50L22.61 10.50L22.61 3.36L23.73 3.36L23.88 4.47L23.88 4.47Q24.08 4.12 24.32 3.84L24.32 3.84L24.32 3.84Q24.56 3.57 24.88 3.40L24.88 3.40L24.88 3.40Q25.20 3.23 25.62 3.20L25.62 3.20L25.62 3.20Q26.04 3.16 26.60 3.30L26.60 3.30ZM31.19 3.19L31.19 3.19L31.19 3.19Q31.74 3.19 32.38 3.35L32.38 3.35L32.38 3.35Q33.01 3.51 33.56 3.93L33.56 3.93L33.56 3.93Q34.10 4.35 34.48 5.08L34.48 5.08L34.48 5.08Q34.85 5.81 34.85 6.94L34.85 6.94L34.85 6.94Q34.85 8.08 34.48 8.80L34.48 8.80L34.48 8.80Q34.10 9.52 33.56 9.93L33.56 9.93L33.56 9.93Q33.01 10.35 32.38 10.51L32.38 10.51L32.38 10.51Q31.74 10.67 31.19 10.67L31.19 10.67L31.19 10.67Q30.66 10.67 30.03 10.51L30.03 10.51L30.03 10.51Q29.40 10.35 28.85 9.93L28.85 9.93L28.85 9.93Q28.31 9.52 27.94 8.80L27.94 8.80L27.94 8.80Q27.58 8.08 27.58 6.94L27.58 6.94L27.58 6.94Q27.58 5.81 27.94 5.08L27.94 5.08L27.94 5.08Q28.31 4.35 28.85 3.93L28.85 3.93L28.85 3.93Q29.40 3.51 30.03 3.35L30.03 3.35L30.03 3.35Q30.66 3.19 31.19 3.19ZM31.19 9.60L31.19 9.60L31.19 9.60Q31.65 9.60 32.07 9.44L32.07 9.44L32.07 9.44Q32.48 9.28 32.78 8.95L32.78 8.95L32.78 8.95Q33.08 8.61 33.26 8.11L33.26 8.11L33.26 8.11Q33.45 7.62 33.45 6.94L33.45 6.94L33.45 6.94Q33.45 6.27 33.26 5.77L33.26 5.77L33.26 5.77Q33.08 5.26 32.78 4.93L32.78 4.93L32.78 4.93Q32.48 4.59 32.07 4.42L32.07 4.42L32.07 4.42Q31.65 4.26 31.19 4.26L31.19 4.26L31.19 4.26Q30.74 4.26 30.34 4.42L30.34 4.42L30.34 4.42Q29.95 4.59 29.64 4.93L29.64 4.93L29.64 4.93Q29.34 5.26 29.17 5.77L29.17 5.77L29.17 5.77Q28.99 6.27 28.99 6.94L28.99 6.94L28.99 6.94Q28.99 7.62 29.17 8.11L29.17 8.11L29.17 8.11Q29.34 8.61 29.64 8.95L29.64 8.95L29.64 8.95Q29.95 9.28 30.34 9.44L30.34 9.44L30.34 9.44Q30.74 9.60 31.19 9.60ZM40.78 3.91L40.35 4.89L40.35 4.89Q39.52 4.26 38.61 4.26L38.61 4.26L38.61 4.26Q38.11 4.26 37.81 4.46L37.81 4.46L37.81 4.46Q37.51 4.66 37.51 5.15L37.51 5.15L37.51 5.15Q37.51 5.40 37.63 5.58L37.63 5.58L37.63 5.58Q37.74 5.75 37.94 5.88L37.94 5.88L37.94 5.88Q38.14 6.01 38.39 6.10L38.39 6.10L38.39 6.10Q38.64 6.20 38.92 6.30L38.92 6.30L38.92 6.30Q39.28 6.43 39.66 6.58L39.66 6.58L39.66 6.58Q40.04 6.73 40.34 6.98L40.34 6.98L40.34 6.98Q40.64 7.22 40.83 7.59L40.83 7.59L40.83 7.59Q41.02 7.97 41.02 8.54L41.02 8.54L41.02 8.54Q41.02 9.09 40.82 9.49L40.82 9.49L40.82 9.49Q40.61 9.90 40.27 10.16L40.27 10.16L40.27 10.16Q39.93 10.42 39.49 10.54L39.49 10.54L39.49 10.54Q39.05 10.67 38.58 10.67L38.58 10.67L38.58 10.67Q37.88 10.67 37.21 10.39L37.21 10.39L37.21 10.39Q36.54 10.11 36.06 9.58L36.06 9.58L36.48 8.65L36.48 8.65Q36.93 9.10 37.50 9.35L37.50 9.35L37.50 9.35Q38.07 9.60 38.61 9.60L38.61 9.60L38.61 9.60Q39.14 9.60 39.49 9.39L39.49 9.39L39.49 9.39Q39.83 9.17 39.84 8.67L39.84 8.67L39.84 8.67Q39.84 8.40 39.73 8.20L39.73 8.20L39.73 8.20Q39.61 8.01 39.41 7.86L39.41 7.86L39.41 7.86Q39.21 7.71 38.95 7.61L38.95 7.61L38.95 7.61Q38.68 7.50 38.40 7.39L38.40 7.39L38.40 7.39Q38.04 7.27 37.67 7.11L37.67 7.11L37.67 7.11Q37.31 6.96 37.02 6.72L37.02 6.72L37.02 6.72Q36.72 6.48 36.54 6.12L36.54 6.12L36.54 6.12Q36.36 5.75 36.36 5.22L36.36 5.22L36.36 5.22Q36.36 4.68 36.55 4.29L36.55 4.29L36.55 4.29Q36.74 3.91 37.06 3.66L37.06 3.66L37.06 3.66Q37.38 3.42 37.80 3.30L37.80 3.30L37.80 3.30Q38.22 3.19 38.68 3.19L38.68 3.19L38.68 3.19Q39.26 3.19 39.80 3.38L39.80 3.38L39.80 3.38Q40.33 3.57 40.78 3.91L40.78 3.91ZM46.58 10.67L46.58 10.67L46.58 10.67Q45.88 10.67 45.23 10.41L45.23 10.41L45.23 10.41Q44.58 10.15 44.14 9.58L44.14 9.58L44.14 12.40L42.83 12.40L42.83 3.36L43.93 3.36L44.14 4.37L44.14 4.38L44.14 4.38Q44.34 4.05 44.67 3.79L44.67 3.79L44.67 3.79Q44.95 3.57 45.42 3.38L45.42 3.38L45.42 3.38Q45.89 3.19 46.58 3.19L46.58 3.19L46.58 3.19Q47.29 3.19 47.86 3.49L47.86 3.49L47.86 3.49Q48.43 3.79 48.82 4.30L48.82 4.30L48.82 4.30Q49.21 4.80 49.41 5.48L49.41 5.48L49.41 5.48Q49.62 6.16 49.62 6.92L49.62 6.92L49.62 6.92Q49.62 7.67 49.41 8.35L49.41 8.35L49.41 8.35Q49.21 9.03 48.82 9.55L48.82 9.55L48.82 9.55Q48.43 10.07 47.86 10.37L47.86 10.37L47.86 10.37Q47.29 10.67 46.58 10.67ZM46.28 4.26L46.28 4.26L46.28 4.26Q45.86 4.26 45.48 4.42L45.48 4.42L45.48 4.42Q45.09 4.58 44.80 4.91L44.80 4.91L44.80 4.91Q44.51 5.24 44.32 5.74L44.32 5.74L44.32 5.74Q44.14 6.24 44.14 6.92L44.14 6.92L44.14 6.92Q44.14 7.59 44.32 8.09L44.32 8.09L44.32 8.09Q44.51 8.60 44.80 8.93L44.80 8.93L44.80 8.93Q45.09 9.27 45.48 9.44L45.48 9.44L45.48 9.44Q45.86 9.60 46.28 9.60L46.28 9.60L46.28 9.60Q46.68 9.60 47.03 9.44L47.03 9.44L47.03 9.44Q47.38 9.27 47.64 8.93L47.64 8.93L47.64 8.93Q47.91 8.60 48.06 8.09L48.06 8.09L48.06 8.09Q48.22 7.59 48.22 6.92L48.22 6.92L48.22 6.92Q48.22 6.24 48.06 5.74L48.06 5.74L48.06 5.74Q47.91 5.24 47.64 4.91L47.64 4.91L47.64 4.91Q47.38 4.58 47.03 4.42L47.03 4.42L47.03 4.42Q46.68 4.26 46.28 4.26ZM54.75 10.67L54.75 10.67L54.75 10.67Q53.55 10.67 52.80 10.31L52.80 10.31L52.80 10.31Q52.05 9.95 51.63 9.39L51.63 9.39L51.63 9.39Q51.21 8.83 51.06 8.14L51.06 8.14L51.06 8.14Q50.90 7.45 50.90 6.78L50.90 6.78L50.90 6.78Q50.90 6.10 51.12 5.46L51.12 5.46L51.12 5.46Q51.34 4.82 51.75 4.31L51.75 4.31L51.75 4.31Q52.16 3.81 52.77 3.50L52.77 3.50L52.77 3.50Q53.37 3.19 54.15 3.19L54.15 3.19L54.15 3.19Q55.09 3.19 55.72 3.52L55.72 3.52L55.72 3.52Q56.35 3.85 56.73 4.38L56.73 4.38L56.73 4.38Q57.11 4.90 57.26 5.54L57.26 5.54L57.26 5.54Q57.41 6.17 57.41 6.78L57.41 6.78L57.41 7.22L52.30 7.22L52.30 7.22Q52.36 7.90 52.61 8.41L52.61 8.41L52.61 8.41Q52.72 8.64 52.89 8.86L52.89 8.86L52.89 8.86Q53.06 9.07 53.31 9.24L53.31 9.24L53.31 9.24Q53.55 9.41 53.87 9.51L53.87 9.51L53.87 9.51Q54.19 9.60 54.61 9.60L54.61 9.60L54.61 9.60Q55.06 9.60 55.46 9.50L55.46 9.50L55.46 9.50Q55.86 9.39 56.17 9.27L56.17 9.27L56.17 9.27Q56.53 9.11 56.84 8.92L56.84 8.92L56.85 10.12L56.85 10.12Q56.85 10.12 56.69 10.21L56.69 10.21L56.69 10.21Q56.53 10.30 56.25 10.40L56.25 10.40L56.25 10.40Q55.97 10.50 55.59 10.58L55.59 10.58L55.59 10.58Q55.20 10.67 54.75 10.67ZM52.30 6.24L56.01 6.24L56.01 6.24Q56.01 5.89 55.91 5.54L55.91 5.54L55.91 5.54Q55.80 5.18 55.58 4.89L55.58 4.89L55.58 4.89Q55.36 4.61 55.01 4.43L55.01 4.43L55.01 4.43Q54.66 4.26 54.15 4.26L54.15 4.26L54.15 4.26Q53.72 4.26 53.38 4.43L53.38 4.43L53.38 4.43Q53.03 4.61 52.79 4.89L52.79 4.89L52.79 4.89Q52.56 5.18 52.43 5.54L52.43 5.54L52.43 5.54Q52.30 5.89 52.30 6.24L52.30 6.24ZM62.26 3.19L62.26 3.19L62.26 3.19Q62.71 3.19 63.03 3.24L63.03 3.24L63.03 3.24Q63.35 3.29 63.56 3.35L63.56 3.35L63.56 3.35Q63.81 3.42 63.98 3.50L63.98 3.50L63.98 4.49L63.98 4.49Q63.35 4.28 62.67 4.26L62.67 4.26L62.67 4.26Q61.99 4.23 61.42 4.48L61.42 4.48L61.42 4.48Q60.84 4.73 60.47 5.32L60.47 5.32L60.47 5.32Q60.10 5.91 60.10 6.93L60.10 6.93L60.10 6.93Q60.10 7.97 60.47 8.55L60.47 8.55L60.47 8.55Q60.84 9.14 61.42 9.39L61.42 9.39L61.42 9.39Q61.99 9.63 62.68 9.59L62.68 9.59L62.68 9.59Q63.36 9.55 63.98 9.31L63.98 9.31L63.98 10.32L63.98 10.32Q63.81 10.43 63.56 10.50L63.56 10.50L63.56 10.50Q63.35 10.57 63.03 10.62L63.03 10.62L63.03 10.62Q62.71 10.67 62.26 10.67L62.26 10.67L62.26 10.67Q61.73 10.67 61.11 10.51L61.11 10.51L61.11 10.51Q60.49 10.35 59.96 9.93L59.96 9.93L59.96 9.93Q59.42 9.51 59.06 8.78L59.06 8.78L59.06 8.78Q58.70 8.05 58.70 6.93L58.70 6.93L58.70 6.93Q58.70 5.80 59.06 5.07L59.06 5.07L59.06 5.07Q59.42 4.34 59.96 3.93L59.96 3.93L59.96 3.93Q60.49 3.51 61.11 3.35L61.11 3.35L61.11 3.35Q61.73 3.19 62.26 3.19ZM69.96 5.12L68.07 5.12L68.07 8.46L68.07 8.46Q68.07 9.59 69.03 9.59L69.03 9.59L69.03 9.59Q69.44 9.59 69.86 9.38L69.86 9.38L69.86 10.40L69.86 10.40Q69.29 10.67 68.64 10.67L68.64 10.67L68.64 10.67Q67.72 10.67 67.21 10.14L67.21 10.14L67.21 10.14Q66.70 9.62 66.70 8.60L66.70 8.60L66.70 5.12L65.42 5.12L65.42 4.05L66.70 4.05L66.70 1.95L68.07 1.62L68.07 4.05L69.96 4.05L69.96 5.12ZM73.16 3.36L73.16 10.50L71.85 10.50L71.85 3.36L73.16 3.36ZM73.35 1.65L73.35 1.65L73.35 1.65Q73.35 2.02 73.09 2.27L73.09 2.27L73.09 2.27Q72.84 2.52 72.49 2.52L72.49 2.52L72.49 2.52Q72.13 2.52 71.88 2.27L71.88 2.27L71.88 2.27Q71.62 2.02 71.62 1.65L71.62 1.65L71.62 1.65Q71.62 1.30 71.88 1.05L71.88 1.05L71.88 1.05Q72.13 0.80 72.49 0.80L72.49 0.80L72.49 0.80Q72.84 0.80 73.09 1.05L73.09 1.05L73.09 1.05Q73.35 1.30 73.35 1.65ZM80.02 3.36L81.37 3.36L78.81 10.50L77.24 10.50L74.69 3.36L76.02 3.36L78.04 9.18L80.02 3.36ZM86.09 10.67L86.09 10.67L86.09 10.67Q84.88 10.67 84.13 10.31L84.13 10.31L84.13 10.31Q83.38 9.95 82.96 9.39L82.96 9.39L82.96 9.39Q82.54 8.83 82.39 8.14L82.39 8.14L82.39 8.14Q82.24 7.45 82.24 6.78L82.24 6.78L82.24 6.78Q82.24 6.10 82.45 5.46L82.45 5.46L82.45 5.46Q82.67 4.82 83.08 4.31L83.08 4.31L83.08 4.31Q83.50 3.81 84.10 3.50L84.10 3.50L84.10 3.50Q84.70 3.19 85.48 3.19L85.48 3.19L85.48 3.19Q86.42 3.19 87.05 3.52L87.05 3.52L87.05 3.52Q87.68 3.85 88.06 4.38L88.06 4.38L88.06 4.38Q88.44 4.90 88.59 5.54L88.59 5.54L88.59 5.54Q88.75 6.17 88.75 6.78L88.75 6.78L88.75 7.22L83.64 7.22L83.64 7.22Q83.69 7.90 83.94 8.41L83.94 8.41L83.94 8.41Q84.06 8.64 84.22 8.86L84.22 8.86L84.22 8.86Q84.39 9.07 84.64 9.24L84.64 9.24L84.64 9.24Q84.88 9.41 85.20 9.51L85.20 9.51L85.20 9.51Q85.53 9.60 85.95 9.60L85.95 9.60L85.95 9.60Q86.39 9.60 86.79 9.50L86.79 9.50L86.79 9.50Q87.19 9.39 87.50 9.27L87.50 9.27L87.50 9.27Q87.86 9.11 88.17 8.92L88.17 8.92L88.19 10.12L88.19 10.12Q88.19 10.12 88.03 10.21L88.03 10.21L88.03 10.21Q87.86 10.30 87.58 10.40L87.58 10.40L87.58 10.40Q87.30 10.50 86.92 10.58L86.92 10.58L86.92 10.58Q86.53 10.67 86.09 10.67ZM83.64 6.24L87.35 6.24L87.35 6.24Q87.35 5.89 87.24 5.54L87.24 5.54L87.24 5.54Q87.14 5.18 86.91 4.89L86.91 4.89L86.91 4.89Q86.69 4.61 86.34 4.43L86.34 4.43L86.34 4.43Q85.99 4.26 85.48 4.26L85.48 4.26L85.48 4.26Q85.05 4.26 84.71 4.43L84.71 4.43L84.71 4.43Q84.36 4.61 84.13 4.89L84.13 4.89L84.13 4.89Q83.89 5.18 83.76 5.54L83.76 5.54L83.76 5.54Q83.64 5.89 83.64 6.24L83.64 6.24Z"></path></g><!----><!----></svg>